<?xml version="1.0" encoding="UTF-8"?><svg id="Camada_2" xmlns="http://www.w3.org/2000/svg" viewBox="0 0 1841.89 612.13"><defs><style>.cls-1{fill:#fff;}.cls-2{fill:#ed790a;}.cls-2,.cls-3{fill-rule:evenodd;}.cls-4{fill:#0096a2;}.cls-5{fill:#30b3be;}.cls-3{fill:#f39638;}</style></defs><g id="Camada_1-2"><g><path class="cls-4" d="m355.56,593.41h0s0,0,0,0l-35.49-20.49h0s0,0,0,0l-35.48-20.49h0s0,0,0,0l-35.48-20.49h0s0,0,0,0l-35.49-20.49-61.46-35.48h0s0,0,0,0l-34.22-19.76v-73.14h0v-66.43s3.49,2.02,3.49,2.02l59.84,34.55v66.43l36.74,21.21h0l163.32,94.3,44.83-25.89h0l61.46-35.49,93.76-54.14v-121.3s-32.67,18.85-32.67,18.85l-61.46,35.49h0s-25.97,15-25.97,15l-35.48,20.49h0s-35.48,20.49-35.48,20.49h0s-8.99,5.19-8.99,5.19c0,0-273.56-157.94-295.07-170.36l-.32-.19h0s0,0,0,0l-28.89-16.68-34.13-19.7,87.17-50.33,132.43-76.46h0S374.95,3.68,374.95,3.68h0l6.38-3.68,10.81,6.25h0s0,0,0,0l35.48,20.49h0s0,0,0,0l35.49,20.49,96.95,55.97h0s0,0,0,0l28.94,16.71-207.68,119.9-2.24-1.29c-20.37-11.76-40.73-23.52-61.1-35.28l.36-.21h0c23.66-13.66,33.3-19.22,56.95-32.88h0s35.48-20.49,35.48-20.49h0s35.48-20.49,35.48-20.49h0s16.04-9.26,16.04-9.26l-55.55-32.07h0s0,0,0,0l-25.44-14.69-117.96,68.1h0s-35.49,20.49-35.49,20.49h0l-78.28,45.2,231.73,133.79,49.59-28.63h0s61.46-35.49,61.46-35.49h0s61.46-35.49,61.46-35.49h0s87.43-50.48,87.43-50.48h0l3.45-1.99v267.58l-65.27,37.68-132.43,76.46-65.69,37.93-25.77-14.88Z"/><path class="cls-5" d="m381.33,0h0s10.81,6.24,10.81,6.24h0s0,0,0,0l35.48,20.49h0s0,0,0,0l35.49,20.49,96.95,55.97h0s0,0,0,0l28.94,16.71-207.68,119.9v-73.14l29.47-17.01h0s35.48-20.49,35.48-20.49h0s16.04-9.26,16.04-9.26l-55.55-32.07h0s0,0,0,0l-25.44-14.69h0S381.33,0,381.33,0Zm0,535.15h0s44.83-25.89,44.83-25.89h0l61.46-35.49,93.76-54.14v-121.3s-32.67,18.85-32.67,18.85l-61.46,35.49h0s-25.97,15-25.97,15l-35.48,20.49h0s-35.48,20.49-35.48,20.49h0s-8.99,5.19-8.99,5.19h0v-73.14h0s49.59-28.63,49.59-28.63h0s61.46-35.49,61.46-35.49h0s61.46-35.49,61.46-35.49h0s87.43-50.48,87.43-50.48h0l3.45-1.99v267.58l-65.27,37.68-132.43,76.46-65.69,37.93h0v-73.14Z"/><path class="cls-2" d="m60.32,471.47l32.05,110.57c-22.38-8.96-56.53-8.55-76.39-6.09l.83-19.17,3.68-85c6.1,2.16,12.51,3.34,19.51,3.34s13.99-1.29,20.32-3.64Zm-3.26-244.84v161.9c2.05.97,4,2.04,5.85,3.22v.03h.05c.35.23.7.46,1.05.69v.04h.05c.99.68,1.95,1.4,2.87,2.16v.04h.05c1.71,1.42,3.29,2.96,4.71,4.66v.1h.08c.1.11.19.23.29.34v.02h.02c.37.46.73.93,1.08,1.41v.05h.04c.5.69.97,1.41,1.43,2.15v.05h.03c.12.19.23.38.34.57v.16h.09c.64,1.11,1.21,2.28,1.74,3.49v.17h.07c.1.24.2.48.29.72h0s0,0,0,0c.12.32.24.64.36.96v.14h.05c.11.3.21.61.31.91v.18h.06c.25.76.47,1.54.67,2.34v.22h.06c.11.45.21.9.31,1.36v.47h.09c.1.49.19,1,.27,1.51v.32h.05c.13.81.23,1.64.32,2.49v1.17h.1c.1,1.3.15,2.64.15,4.02,0,2.06-.21,4.15-.61,6.22h0c-.19.98-.42,1.96-.69,2.93h-.04v.12c-.3,1.06-.65,2.12-1.05,3.17h-.05v.13c-.8,2.08-1.78,4.12-2.92,6.09h0c-.87,1.51-1.85,2.98-2.9,4.39h-.02v.03c-2.1,2.8-4.55,5.39-7.27,7.65h-.05v.04c-.59.49-1.2.97-1.81,1.43h-.01c-2.79,2.08-5.83,3.82-9.06,5.12h-.09v.03c-1.4.56-2.83,1.04-4.29,1.43h-.1v.03c-.47.12-.94.24-1.42.34h-.04c-1.61.36-3.25.61-4.91.73h-.58v.04c-.68.04-1.36.06-2.05.06s-1.32-.02-1.97-.05v-.05h-.65c-1.01-.08-2.01-.2-3-.36h0s-.06-.01-.06-.01c-1.98-.32-3.92-.82-5.8-1.45h0s-.03,0-.03,0c-1.24-.42-2.45-.9-3.63-1.45v-.02h-.04c-.48-.22-.95-.45-1.42-.69v-.04h-.09c-.22-.11-.43-.22-.65-.34v-.03h-.05c-.85-.46-1.69-.94-2.51-1.46h0s0,0,0,0c-.37-.23-.74-.47-1.1-.72h0s-.02-.01-.02-.01c-1-.68-1.97-1.39-2.91-2.15v-.05h-.06c-.86-.7-1.7-1.43-2.5-2.19h0s0,0,0,0c-.12-.11-.24-.22-.36-.34v-.03h-.03c-.11-.11-.22-.22-.33-.33v-.03h-.04c-.11-.11-.22-.22-.33-.33v-.04h-.04c-1.15-1.16-2.24-2.39-3.25-3.66-.38-.47-.74-.95-1.1-1.43v-.03h-.02c-.77-1.06-1.5-2.14-2.17-3.25v-.04h-.03c-.51-.84-.99-1.69-1.44-2.56h0c-.12-.25-.24-.48-.36-.73h0s0-.01,0-.01c-1.05-2.12-1.91-4.3-2.56-6.51v-.08h-.02c-.28-.94-.51-1.89-.71-2.84v-.08h-.02c-.14-.66-.25-1.32-.35-1.98v-.21h-.03c-.21-1.47-.31-2.94-.31-4.39,0-1.91.1-3.73.28-5.48h.06v-.55c.09-.81.21-1.6.34-2.37h.02v-.14c.08-.45.16-.89.25-1.33h.11v-.52c.1-.44.2-.88.31-1.31h.05v-.21c.11-.42.23-.84.35-1.26h.01v-.04c.11-.35.22-.71.33-1.06h.03v-.09c.11-.34.23-.67.36-1.01h0v-.03c.09-.24.18-.47.27-.71h.1v-.24c.12-.29.24-.57.36-.86h0c.33-.76.67-1.49,1.04-2.2h.05v-.1c.11-.22.23-.42.34-.63h.02v-.04c.34-.61.7-1.2,1.07-1.78h.03v-.05c.23-.36.47-.71.71-1.05h.02v-.03c.34-.49.7-.97,1.06-1.43h.04v-.04c.08-.11.17-.22.25-.32h.11v-.13c.58-.71,1.19-1.4,1.83-2.06h0c.12-.12.23-.25.35-.37h.01c.12-.13.23-.25.35-.37h.01c.12-.13.24-.25.37-.37h0c1.23-1.18,2.55-2.27,3.94-3.29h.08v-.06c.32-.23.63-.45.95-.67h.15v-.1c1.5-1.02,3.08-1.96,4.73-2.83h.02c.23-.13.45-.25.68-.37h.05v-.03c.23-.12.46-.23.69-.34h.04v-.02c.21-.1.42-.2.63-.31v-181.6h0s34.12,19.7,34.12,19.7Zm298.51,366.78h0l-35.48-20.49h0s0,0,0,0l-35.48-20.49-35.48-20.49h0s0,0,0,0l-35.49-20.49-61.46-35.48h0s0,0,0,0l-34.22-19.76v-73.14h0v-66.43s3.49,2.02,3.49,2.02l59.84,34.55v66.42l36.74,21.21,163.32,94.3,44.84-25.89h0s61.46-35.49,61.46-35.49l93.76-54.14v-119.54s63.33-36.02,63.33-36.02v192.13l-65.27,37.68-132.43,76.46-65.69,37.92-25.77-14.88Z"/><polygon class="cls-3" points="381.33 535.15 426.17 509.27 426.17 509.27 487.63 473.78 581.39 419.64 581.38 298.37 644.73 262.22 644.73 456.22 579.45 493.9 447.02 570.36 381.33 608.29 381.33 535.15"/><path class="cls-1" d="m1841.89,444.19c.05,5.2-1.02,9.39-3.2,12.61-3.7,5.47-10.19,8.64-19.44,9.49-3.87.39-8.42.58-13.68.58h-.99c-13.87,0-22.78-1.69-26.75-5.11-4.16-4.29-6.25-10.82-6.25-19.58h18.3c0,5.71,1.31,9.27,3.95,10.72,1.4.77,4.55,1.35,9.42,1.77.97-.29,2.18-.44,3.63-.44h1.45c1.38,0,2.3.15,2.76.44,4.36-.22,7.38-.87,9.08-1.96,2.28-1.5,3.41-4.19,3.41-8.13,0-4.21-1.38-6.97-4.16-8.28-2.93-1.36-6.9-2.11-11.88-2.25-9.3-.27-14.6-.46-15.9-.58-7.09-.65-11.98-2.18-14.69-4.55-3.56-3.07-5.35-8.67-5.35-16.75v-2.3c0-5.28.97-9.39,2.88-12.39,1.94-3,4.84-5.16,8.74-6.41,4.41-1.45,12.05-2.18,22.95-2.18,12.08,0,20.21,1.31,24.4,3.95,5.71,3.58,8.59,9.54,8.59,17.82h-18.15c0-3.97-1.6-6.63-4.77-7.99-2.01-.85-5.35-1.28-10.07-1.28-5.95,0-10.21.53-12.8,1.6-2.2,1.62-3.32,4.48-3.32,8.57,0,2.11.31,3.75.94,4.99.7,1.38,2.27,2.28,4.72,2.69,3.17.56,7.43.85,12.78.9,17.26.15,27.5,3.34,30.72,9.61,1.72,3.41,2.61,8.23,2.69,14.48m-116.5-24.38c0-7.55-.82-12.22-2.49-13.99-1.31-1.4-3.58-2.3-6.75-2.71-.9-.05-3.63-.15-8.21-.29-3.68.19-6.17.39-7.51.6-3.19.51-5.42,1.45-6.68,2.83-1.77,1.96-2.64,6.46-2.64,13.56h34.28Zm18.3,22.08c0,9.34-2.37,15.98-7.12,19.87-4.16,3.41-13.31,5.11-27.45,5.11-9.71,0-17.07-.97-22.03-2.9-7.24-2.81-11.6-8.93-13.05-18.32-.82-5.4-1.24-11.69-1.24-18.86,0-15.15,2.57-25.27,7.7-30.35,5.35-5.28,14.48-7.79,27.45-7.55,13.58.27,22.58,2.35,27.01,6.25,4.6,4.09,7.29,10.92,8.04,20.5.29,3.63.51,8.91.68,15.81h-52.58c0,1.65-.05,3.05-.15,4.21.17,3.75.46,6.51.85,8.28.75,3.41,2.06,5.71,3.97,6.85,3,1.43,7.48,2.15,13.41,2.15,6.92,0,11.4-.82,13.41-2.44,1.86-1.5,2.78-4.36,2.78-8.59h18.3Zm-95.15-22.95h-16.99c0-8.25-.99-13.09-3-14.55-1.38-.99-3.51-1.52-6.37-1.57-4.53-.07-7.94,1.21-10.26,3.85-2.3,2.64-3.46,6.87-3.46,12.66v46.67h-18.3v-76.25h17.86l-.58,10.17h.85c3.24-7.36,9.92-11.04,20.04-11.04,4.74,0,8.45.68,11.11,2.06,2.86,1.5,4.96,3.53,6.34,6.05,1.84,3.44,2.76,8.57,2.76,15.42v6.54Zm-106.62,9.37c0-11.47-1.02-18.52-3.07-21.13-1.4-1.79-3.66-3-6.75-3.61-1.19-.27-3.82-.51-7.89-.75-3.97.24-6.54.46-7.65.7-2.9.58-5.13,1.69-6.68,3.36-2.25,2.44-3.39,9.58-3.39,21.42,0,10.31.87,16.92,2.64,19.85,1.94,3.17,6.97,4.77,15.08,4.77,7.62,0,12.51-1.31,14.64-3.9,2.06-3.07,3.07-10,3.07-20.72Zm18.3-.07c.1,7.43-.36,14.11-1.38,20.02-.97,5.52-3.27,9.73-6.92,12.66-3.05,2.44-6.92,4.07-11.67,4.82-4.6.75-10.05,1.14-16.34,1.14-10.22,0-17.82-1.09-22.78-3.29-3.15-1.38-5.66-3.44-7.55-6.17-3.61-5.2-5.4-14.26-5.4-27.16,0-16.78,1.99-27.67,5.95-32.65,4.62-5.81,14.64-8.71,30.06-8.71,9.32,0,16.41.9,21.28,2.69,2.93,1.09,5.37,2.56,7.33,4.43,3.24,3.07,5.23,7.02,5.98,11.81.87,5.42,1.33,12.22,1.43,20.43Zm-122.01,1.24v-3.66c0-4.21-.19-7.62-.6-10.24-1.28-8.5-7.02-12.76-17.19-12.76-7,0-11.47,1.74-13.43,5.23-1.94,3.39-2.9,10.14-2.9,20.26,0,10.8,1.21,17.62,3.61,20.43,2.2,2.57,6.03,4.04,11.42,4.48,2.64-.22,6.54-.9,11.72-2.01,1.74-.6,3.2-1.62,4.36-3.07,2.01-2.54,3.03-8.76,3.03-18.66Zm18.74,36.53h-18.3l.7-11.3h-.56c-3.68,8.11-11.42,12.17-23.24,12.17-10,0-17.16-2.08-21.52-6.27-2.59-2.52-4.45-5.4-5.59-8.69-1.77-5.18-2.66-12.78-2.66-22.8s.29-16.68.9-19.92c1.02-5.59,3-9.9,5.93-12.9,2.54-2.56,5.35-4.4,8.47-5.49,3.61-1.24,8.18-1.86,13.68-1.91,12.47-.1,20.24,3.58,23.29,11.04h.61v-42.84h18.3v108.93Zm-117.51-46.18c0-7.55-.82-12.22-2.49-13.99-1.31-1.4-3.58-2.3-6.75-2.71-.9-.05-3.63-.15-8.21-.29-3.68.19-6.17.39-7.51.6-3.19.51-5.42,1.45-6.68,2.83-1.77,1.96-2.64,6.46-2.64,13.56h34.28Zm18.3,22.08c0,9.34-2.37,15.98-7.12,19.87-4.16,3.41-13.31,5.11-27.45,5.11-9.71,0-17.07-.97-22.03-2.9-7.24-2.81-11.6-8.93-13.05-18.32-.82-5.4-1.24-11.69-1.24-18.86,0-15.15,2.57-25.27,7.7-30.35,5.35-5.28,14.48-7.79,27.45-7.55,13.58.27,22.58,2.35,27.01,6.25,4.6,4.09,7.29,10.92,8.04,20.5.29,3.63.51,8.91.68,15.81h-52.58c0,1.65-.05,3.05-.15,4.21.17,3.75.46,6.51.85,8.28.75,3.41,2.06,5.71,3.97,6.85,3,1.43,7.48,2.15,13.41,2.15,6.92,0,11.4-.82,13.41-2.44,1.86-1.5,2.78-4.36,2.78-8.59h18.3Zm-97.33-4.79c0,12.08-2.47,20.12-7.41,24.11-4.65,3.78-13.53,5.66-26.7,5.66-6.8,0-11.72-.27-14.72-.82-5.54-.97-9.87-3.07-12.95-6.29-3.75-3.95-5.98-9.61-6.63-16.94-.39-3.7-.58-8.37-.58-14.01,0-7.46.24-12.9.75-16.27.89-6.17,2.83-11.16,5.81-14.93,2.83-3.58,6.46-5.91,10.89-6.95,4.74-1.09,10.36-1.67,16.82-1.77,5.16-.07,10.33.36,15.56,1.28,4.77.87,8.3,2.13,10.58,3.77,5.71,4.16,8.57,11.72,8.57,22.66h-18.11c0-4.65-.77-7.89-2.32-9.73-1.84-2.69-6.56-4.04-14.18-4.04-6.97,0-11.4,1.55-13.31,4.62-1.45,2.4-2.37,7.16-2.76,14.35.19.97.29,2.52.29,4.62,0,4.43-.1,7.91-.29,10.43.29,2.32.56,4.67.82,7,.41,2.59,1.36,4.7,2.83,6.32,1.84,1.67,5.47,2.66,10.87,3.05.7-.19,1.62-.29,2.76-.29,3.85,0,6.58-.19,8.28-.56,1.7-.36,3.1-1.09,4.21-2.18,1.74-1.72,2.61-5.25,2.61-10.6v-2.49h18.3Zm-115.77-17.28c0-7.55-.82-12.22-2.49-13.99-1.31-1.4-3.58-2.3-6.75-2.71-.9-.05-3.63-.15-8.21-.29-3.68.19-6.17.39-7.5.6-3.19.51-5.42,1.45-6.68,2.83-1.77,1.96-2.64,6.46-2.64,13.56h34.28Zm18.3,22.08c0,9.34-2.37,15.98-7.12,19.87-4.16,3.41-13.31,5.11-27.45,5.11-9.71,0-17.07-.97-22.03-2.9-7.24-2.81-11.6-8.93-13.05-18.32-.82-5.4-1.24-11.69-1.24-18.86,0-15.15,2.57-25.27,7.7-30.35,5.35-5.28,14.48-7.79,27.45-7.55,13.58.27,22.58,2.35,27.01,6.25,4.6,4.09,7.29,10.92,8.04,20.5.29,3.63.51,8.91.68,15.81h-52.58c0,1.65-.05,3.05-.15,4.21.17,3.75.46,6.51.85,8.28.75,3.41,2.06,5.71,3.97,6.85,3,1.43,7.48,2.15,13.41,2.15,6.92,0,11.4-.82,13.41-2.44,1.86-1.5,2.78-4.36,2.78-8.59h18.3Zm-101.66,24.11h-18.45v-47.83c0-7.53-1.74-12.13-5.2-13.87-2.03-.99-5.01-1.48-8.93-1.48-6.49,0-11.26,1.55-14.31,4.62-1.45,1.52-2.49,3.53-3.05,6.03-.6,2.66-.9,6.42-.9,11.26v41.27h-18.3v-76.25h18.3v11.62h.44c2.42-6.8,7.14-10.72,14.14-11.81,3.05-.48,6.39-.7,10.02-.68,13.29.12,21.33,4.11,24.18,11.98,1.38,3.8,2.06,8.76,2.06,14.89v50.25Zm-96.31-47.06h-16.99c0-8.25-.99-13.09-3-14.55-1.38-.99-3.51-1.52-6.37-1.57-4.53-.07-7.94,1.21-10.26,3.85-2.3,2.64-3.46,6.87-3.46,12.66v46.67h-18.3v-76.25h17.86l-.58,10.17h.85c3.24-7.36,9.92-11.04,20.04-11.04,4.75,0,8.45.68,11.11,2.06,2.86,1.5,4.96,3.53,6.34,6.05,1.84,3.44,2.76,8.57,2.76,15.42v6.54Zm-106.62,9.37c0-11.47-1.02-18.52-3.07-21.13-1.4-1.79-3.66-3-6.75-3.61-1.19-.27-3.82-.51-7.89-.75-3.97.24-6.54.46-7.65.7-2.9.58-5.13,1.69-6.68,3.36-2.25,2.44-3.39,9.58-3.39,21.42,0,10.31.87,16.92,2.64,19.85,1.94,3.17,6.97,4.77,15.08,4.77,7.62,0,12.51-1.31,14.64-3.9,2.06-3.07,3.07-10,3.07-20.72Zm18.3-.07c.1,7.43-.36,14.11-1.38,20.02-.97,5.52-3.27,9.73-6.92,12.66-3.05,2.44-6.92,4.07-11.67,4.82-4.6.75-10.05,1.14-16.34,1.14-10.22,0-17.82-1.09-22.78-3.29-3.15-1.38-5.66-3.44-7.55-6.17-3.61-5.2-5.4-14.26-5.4-27.16,0-16.78,1.99-27.67,5.95-32.65,4.62-5.81,14.65-8.71,30.06-8.71,9.32,0,16.41.9,21.28,2.69,2.93,1.09,5.37,2.56,7.33,4.43,3.24,3.07,5.23,7.02,5.98,11.81.87,5.42,1.33,12.22,1.43,20.43Zm-95.12-24.54h-18.59v62.31h-18.3v-62.31h-10.75v-13.94h10.75v-7.41c0-10.02,1.99-16.85,5.96-20.48,3.51-3.2,9.66-4.79,18.47-4.79h11.89v13.94h-5.33c-4.62,0-7.75.53-9.34,1.6-2.23,1.48-3.34,5.01-3.34,10.58v6.56h18.59v13.94Z"/><path class="cls-1" d="m1651.77,589.45c.05,5.2-1.02,9.39-3.2,12.61-3.7,5.47-10.19,8.64-19.44,9.49-3.87.39-8.42.58-13.68.58h-.99c-13.87,0-22.78-1.69-26.75-5.11-4.16-4.29-6.25-10.82-6.25-19.58h18.3c0,5.71,1.31,9.27,3.95,10.72,1.4.77,4.55,1.35,9.42,1.77.97-.29,2.18-.44,3.63-.44h1.45c1.38,0,2.3.15,2.76.44,4.36-.22,7.38-.87,9.08-1.96,2.28-1.5,3.41-4.19,3.41-8.13,0-4.21-1.38-6.97-4.16-8.28-2.93-1.36-6.9-2.11-11.88-2.25-9.29-.27-14.6-.46-15.9-.58-7.09-.65-11.98-2.18-14.69-4.55-3.56-3.07-5.35-8.67-5.35-16.75v-2.3c0-5.28.97-9.39,2.88-12.39,1.94-3,4.84-5.16,8.74-6.41,4.41-1.45,12.05-2.18,22.95-2.18,12.08,0,20.21,1.31,24.4,3.95,5.71,3.58,8.59,9.54,8.59,17.82h-18.15c0-3.97-1.6-6.63-4.77-7.99-2.01-.85-5.35-1.28-10.07-1.28-5.95,0-10.21.53-12.8,1.6-2.2,1.62-3.32,4.48-3.32,8.57,0,2.11.31,3.75.94,4.99.7,1.38,2.28,2.28,4.72,2.69,3.17.56,7.43.85,12.78.9,17.26.15,27.5,3.34,30.72,9.61,1.72,3.41,2.61,8.23,2.69,14.48m-99,21.81h-18.3v-76.25h18.3v76.25Zm0-93.39h-18.3v-15.54h18.3v15.54Zm-68.65,69.86c0-4.38-1.53-7.26-4.58-8.67-3.29-1.5-7.29-2.2-11.98-2.08-3.95.1-7.29.36-10.02.77-1.77.29-3.27,1.16-4.5,2.59-1.55,1.81-2.32,4.38-2.32,7.7,0,6.27,2.11,9.88,6.32,10.84,2.2.51,5.32.75,9.39.75,8.5,0,13.77-1.4,15.83-4.19,1.24-2.06,1.86-4.62,1.86-7.72Zm18.3,23.53h-18.3l1.02-9.3-.56-.29c-1.72,4.62-5.08,7.65-10.12,9.15-2.95.87-7.72,1.31-14.31,1.31-10.58,0-17.94-2.08-22.08-6.27-3.78-3.82-5.66-9.68-5.66-17.55,0-8.67,2.15-14.82,6.49-18.42,4.33-3.61,11.59-5.4,21.76-5.4,7.99,0,13.75.94,17.33,2.81,2.47,1.28,4.26,3.27,5.42,5.91h.7v-11.62c0-4.89-.53-8.28-1.6-10.17-.8-1.45-2.11-2.61-3.95-3.49-2.08-.99-5.59-1.43-10.48-1.31-2.95.07-5.57.27-7.87.56-1.26.17-2.59.82-4,1.91-1.74,1.67-2.61,4.4-2.61,8.25h-18.3c0-9.32,2.61-15.66,7.84-19,4.41-2.81,11.62-4.21,21.66-4.21h2.45c14.45,0,23.99,2.08,28.61,6.25,4.36,3.9,6.54,10.67,6.54,20.36v50.52Zm-99.97,0h-18.45v-47.83c0-7.53-1.74-12.13-5.2-13.87-2.03-.99-5.01-1.48-8.93-1.48-6.49,0-11.26,1.55-14.31,4.62-1.45,1.52-2.49,3.53-3.05,6.03-.6,2.66-.9,6.42-.9,11.26v41.27h-18.3v-76.25h18.3v11.62h.44c2.42-6.8,7.14-10.72,14.14-11.81,3.05-.48,6.39-.7,10.02-.68,13.29.12,21.33,4.11,24.18,11.98,1.38,3.8,2.06,8.76,2.06,14.89v50.25Zm-117.28-37.69c0-11.47-1.02-18.52-3.07-21.13-1.4-1.79-3.66-3-6.75-3.61-1.19-.27-3.83-.51-7.89-.75-3.97.24-6.54.46-7.65.7-2.9.58-5.13,1.69-6.68,3.36-2.25,2.44-3.39,9.58-3.39,21.42,0,10.31.87,16.92,2.64,19.85,1.94,3.17,6.97,4.77,15.08,4.77,7.62,0,12.51-1.31,14.64-3.9,2.06-3.07,3.07-10,3.07-20.72Zm18.3-.07c.1,7.43-.36,14.11-1.38,20.02-.97,5.52-3.27,9.73-6.92,12.66-3.05,2.44-6.92,4.07-11.67,4.82-4.6.75-10.05,1.14-16.34,1.14-10.22,0-17.82-1.09-22.78-3.29-3.15-1.38-5.66-3.44-7.55-6.17-3.61-5.2-5.4-14.26-5.4-27.16,0-16.78,1.99-27.67,5.95-32.65,4.62-5.81,14.65-8.71,30.06-8.71,9.32,0,16.41.9,21.28,2.69,2.93,1.09,5.37,2.56,7.33,4.43,3.24,3.07,5.23,7.02,5.98,11.81.87,5.42,1.33,12.22,1.43,20.43Zm-101.04,37.76h-18.3v-76.25h18.3v76.25Zm0-93.39h-18.3v-15.54h18.3v15.54Zm-45.54,64.49c0,12.08-2.47,20.12-7.41,24.11-4.65,3.78-13.53,5.66-26.7,5.66-6.8,0-11.72-.27-14.72-.82-5.54-.97-9.87-3.07-12.95-6.29-3.75-3.95-5.98-9.61-6.63-16.94-.39-3.7-.58-8.37-.58-14.01,0-7.46.24-12.9.75-16.27.89-6.17,2.83-11.16,5.81-14.93,2.83-3.58,6.46-5.91,10.89-6.95,4.74-1.09,10.36-1.67,16.82-1.77,5.16-.07,10.34.36,15.56,1.28,4.77.87,8.3,2.13,10.58,3.77,5.71,4.16,8.57,11.72,8.57,22.66h-18.11c0-4.65-.77-7.89-2.32-9.73-1.84-2.69-6.56-4.04-14.18-4.04-6.97,0-11.4,1.55-13.31,4.62-1.45,2.4-2.37,7.16-2.76,14.35.19.97.29,2.52.29,4.62,0,4.43-.1,7.91-.29,10.43.29,2.32.56,4.67.82,7,.41,2.59,1.36,4.7,2.83,6.32,1.84,1.67,5.47,2.66,10.87,3.05.7-.19,1.62-.29,2.76-.29,3.85,0,6.58-.19,8.28-.56,1.7-.36,3.1-1.09,4.21-2.18,1.74-1.72,2.61-5.25,2.61-10.6v-2.49h18.3Zm-117.88,5.37c0-4.38-1.53-7.26-4.58-8.67-3.29-1.5-7.29-2.2-11.98-2.08-3.95.1-7.29.36-10.02.77-1.77.29-3.27,1.16-4.5,2.59-1.55,1.81-2.32,4.38-2.32,7.7,0,6.27,2.11,9.88,6.32,10.84,2.2.51,5.32.75,9.39.75,8.5,0,13.77-1.4,15.83-4.19,1.23-2.06,1.86-4.62,1.86-7.72Zm18.3,23.53h-18.3l1.02-9.3-.56-.29c-1.72,4.62-5.08,7.65-10.12,9.15-2.95.87-7.72,1.31-14.31,1.31-10.58,0-17.94-2.08-22.08-6.27-3.78-3.82-5.66-9.68-5.66-17.55,0-8.67,2.15-14.82,6.49-18.42,4.33-3.61,11.59-5.4,21.76-5.4,7.99,0,13.75.94,17.33,2.81,2.47,1.28,4.26,3.27,5.42,5.91h.7v-11.62c0-4.89-.53-8.28-1.6-10.17-.8-1.45-2.11-2.61-3.95-3.49-2.08-.99-5.59-1.43-10.48-1.31-2.95.07-5.57.27-7.87.56-1.26.17-2.59.82-3.99,1.91-1.74,1.67-2.61,4.4-2.61,8.25h-18.3c0-9.32,2.61-15.66,7.84-19,4.41-2.81,11.62-4.21,21.66-4.21h2.45c14.45,0,23.99,2.08,28.61,6.25,4.36,3.9,6.54,10.67,6.54,20.36v50.52Zm-95.64-28.9c0,12.08-2.47,20.12-7.41,24.11-4.65,3.78-13.53,5.66-26.7,5.66-6.8,0-11.72-.27-14.72-.82-5.54-.97-9.87-3.07-12.95-6.29-3.75-3.95-5.98-9.61-6.63-16.94-.39-3.7-.58-8.37-.58-14.01,0-7.46.24-12.9.75-16.27.89-6.17,2.83-11.16,5.81-14.93,2.83-3.58,6.46-5.91,10.89-6.95,4.75-1.09,10.36-1.67,16.82-1.77,5.16-.07,10.34.36,15.56,1.28,4.77.87,8.3,2.13,10.58,3.77,5.71,4.16,8.57,11.72,8.57,22.66h-18.11c0-4.65-.77-7.89-2.32-9.73-1.84-2.69-6.56-4.04-14.18-4.04-6.97,0-11.4,1.55-13.31,4.62-1.45,2.4-2.37,7.16-2.76,14.35.19.97.29,2.52.29,4.62,0,4.43-.1,7.91-.29,10.43.29,2.32.56,4.67.82,7,.41,2.59,1.36,4.7,2.83,6.32,1.84,1.67,5.47,2.66,10.87,3.05.7-.19,1.62-.29,2.76-.29,3.85,0,6.58-.19,8.28-.56,1.7-.36,3.1-1.09,4.21-2.18,1.74-1.72,2.61-5.25,2.61-10.6v-2.49h18.3Zm-99.56,28.9h-17.57v-11.62h-.73c-3.27,8.33-11.38,12.49-24.33,12.49-16.9,0-25.34-7.12-25.34-21.37v-55.75h18.3v49.84c0,5.59.82,9.13,2.49,10.6,2.01,1.82,5.52,2.74,10.51,2.74,7.29,0,12.35-1.79,15.18-5.35,2.23-2.83,3.34-7.29,3.34-13.38l-.15-44.44h18.3v76.25Zm-119.46-36.53v-3.66c0-4.21-.19-7.62-.6-10.24-1.28-8.5-7.02-12.76-17.19-12.76-7,0-11.47,1.74-13.43,5.23-1.94,3.39-2.9,10.14-2.9,20.26,0,10.8,1.21,17.62,3.61,20.43,2.2,2.57,6.03,4.04,11.42,4.48,2.64-.22,6.54-.9,11.72-2.01,1.74-.6,3.2-1.62,4.36-3.07,2.01-2.54,3.03-8.76,3.03-18.66Zm18.74,36.53h-18.3l.7-11.3h-.56c-3.68,8.11-11.42,12.17-23.24,12.17-10,0-17.16-2.08-21.52-6.27-2.59-2.52-4.45-5.4-5.59-8.69-1.77-5.18-2.66-12.78-2.66-22.8s.29-16.68.9-19.92c1.02-5.59,3-9.9,5.93-12.9,2.54-2.56,5.35-4.4,8.47-5.49,3.61-1.24,8.18-1.86,13.68-1.91,12.47-.1,20.24,3.58,23.29,11.04h.61v-42.84h18.3v108.93Zm-116.26-46.18c0-7.55-.82-12.22-2.49-13.99-1.31-1.4-3.58-2.3-6.75-2.71-.9-.05-3.63-.15-8.21-.29-3.68.19-6.17.39-7.51.6-3.19.51-5.42,1.45-6.68,2.83-1.77,1.96-2.64,6.46-2.64,13.56h34.27Zm18.3,22.08c0,9.34-2.37,15.98-7.12,19.87-4.16,3.41-13.31,5.11-27.45,5.11-9.71,0-17.07-.97-22.03-2.9-7.24-2.81-11.6-8.93-13.05-18.32-.82-5.4-1.24-11.69-1.24-18.86,0-15.15,2.57-25.27,7.7-30.35,5.35-5.28,14.48-7.79,27.45-7.55,13.58.27,22.58,2.35,27.01,6.25,4.6,4.09,7.29,10.92,8.04,20.5.29,3.63.51,8.91.68,15.81h-52.58c0,1.65-.05,3.05-.15,4.21.17,3.75.46,6.51.85,8.28.75,3.41,2.06,5.71,3.97,6.85,3,1.43,7.48,2.15,13.41,2.15,6.92,0,11.4-.82,13.41-2.44,1.86-1.5,2.78-4.36,2.78-8.59h18.3Z"/></g></g></svg>