<?xml version="1.0" encoding="utf-8"?>
<!-- Generator: Adobe Illustrator 27.2.0, SVG Export Plug-In . SVG Version: 6.00 Build 0)  -->
<svg version="1.1" id="Camada_2" xmlns="http://www.w3.org/2000/svg" xmlns:xlink="http://www.w3.org/1999/xlink" x="0px" y="0px"
	 viewBox="0 0 100 100" style="enable-background:new 0 0 100 100;" xml:space="preserve">
<style type="text/css">
	.st0{fill:#0096A2;}
	.st1{fill:#30B3BE;}
	.st2{fill-rule:evenodd;clip-rule:evenodd;fill:#ED790A;}
	.st3{fill-rule:evenodd;clip-rule:evenodd;fill:#F39638;}
</style>
<g id="Camada_1-2">
	<g>
		<path class="st0" d="M55.1,94.9L55.1,94.9L55.1,94.9l-5.5-3.2l0,0l0,0l-5.5-3.2l0,0l0,0l-5.5-3.2l0,0l0,0l-5.5-3.2l-9.5-5.5l0,0
			l0,0l-5.3-3.1V62.2h0V51.9l0.5,0.3l9.3,5.4v10.3l5.7,3.3l0,0l25.3,14.6l7-4l0,0l9.5-5.5l14.5-8.4l0-18.8L85.1,52l-9.5,5.5l0,0
			l-4,2.3L66,63l0,0l-5.5,3.2l0,0L59.1,67c0,0-42.4-24.5-45.8-26.4l-0.1,0l0,0l0,0L8.9,38l-5.3-3.1l13.5-7.8l20.5-11.9l0,0L58.2,3.4
			l0,0l1-0.6l1.7,1l0,0l0,0L66.3,7l0,0l0,0l5.5,3.2l15,8.7l0,0l0,0l4.5,2.6L59.1,40l-0.3-0.2c-3.2-1.8-6.3-3.6-9.5-5.5l0.1,0h0
			c3.7-2.1,5.2-3,8.8-5.1l0,0l5.5-3.2l0,0l5.5-3.2l0,0l2.5-1.4l-8.6-5l0,0l0,0l-3.9-2.3L40.8,24.7l0,0l-5.5,3.2l0,0l-12.1,7
			l35.9,20.8l7.7-4.4l0,0l9.5-5.5l0,0l9.5-5.5l0,0l13.6-7.8l0,0l0.5-0.3v41.5l-10.1,5.8L69.3,91.3l-10.2,5.9L55.1,94.9L55.1,94.9z"
			/>
		<path class="st1" d="M59.1,2.8L59.1,2.8l1.7,1l0,0l0,0L66.3,7l0,0l0,0l5.5,3.2l15,8.7l0,0l0,0l4.5,2.6L59.1,40V28.7l4.6-2.6l0,0
			l5.5-3.2l0,0l2.5-1.4l-8.6-5l0,0l0,0l-3.9-2.3l0,0L59.1,2.8z M59.1,85.8L59.1,85.8l7-4l0,0l9.5-5.5l14.5-8.4l0-18.8L85.1,52
			l-9.5,5.5l0,0l-4,2.3L66,63l0,0l-5.5,3.2l0,0L59.1,67l0,0V55.7l0,0l7.7-4.4l0,0l9.5-5.5l0,0l9.5-5.5l0,0l13.6-7.8l0,0l0.5-0.3
			v41.5l-10.1,5.8L69.3,91.3l-10.2,5.9l0,0L59.1,85.8L59.1,85.8z"/>
		<path class="st2" d="M9.4,76l5,17.1c-3.5-1.4-8.8-1.3-11.8-0.9l0.1-3L3.2,76c0.9,0.3,1.9,0.5,3,0.5S8.4,76.3,9.4,76L9.4,76z
			 M8.8,38v25.1c0.3,0.2,0.6,0.3,0.9,0.5v0h0c0.1,0,0.1,0.1,0.2,0.1v0h0c0.2,0.1,0.3,0.2,0.4,0.3v0h0c0.3,0.2,0.5,0.5,0.7,0.7v0h0
			c0,0,0,0,0,0.1v0h0c0.1,0.1,0.1,0.1,0.2,0.2v0h0c0.1,0.1,0.2,0.2,0.2,0.3v0h0c0,0,0,0.1,0.1,0.1v0h0c0.1,0.2,0.2,0.4,0.3,0.5v0h0
			c0,0,0,0.1,0,0.1v0l0,0c0,0,0,0.1,0.1,0.1v0h0c0,0,0,0.1,0,0.1v0h0c0,0.1,0.1,0.2,0.1,0.4v0h0c0,0.1,0,0.1,0,0.2v0.1h0
			c0,0.1,0,0.2,0,0.2v0.1h0c0,0.1,0,0.3,0,0.4v0.2h0c0,0.2,0,0.4,0,0.6c0,0.3,0,0.6-0.1,1l0,0c0,0.2-0.1,0.3-0.1,0.5h0v0
			c0,0.2-0.1,0.3-0.2,0.5h0v0c-0.1,0.3-0.3,0.6-0.5,0.9l0,0c-0.1,0.2-0.3,0.5-0.5,0.7h0v0c-0.3,0.4-0.7,0.8-1.1,1.2h0v0
			c-0.1,0.1-0.2,0.2-0.3,0.2h0v0c-0.4,0.3-0.9,0.6-1.4,0.8h0v0c-0.2,0.1-0.4,0.2-0.7,0.2h0v0c-0.1,0-0.1,0-0.2,0.1h0v0
			c-0.2,0.1-0.5,0.1-0.8,0.1H6.5v0c-0.1,0-0.2,0-0.3,0c-0.1,0-0.2,0-0.3,0v0H5.8c-0.2,0-0.3,0-0.5-0.1v0h0c-0.3-0.1-0.6-0.1-0.9-0.2
			v0h0c-0.2-0.1-0.4-0.1-0.6-0.2v0h0c-0.1,0-0.1-0.1-0.2-0.1v0h0c0,0-0.1,0-0.1-0.1v0h0c-0.1-0.1-0.3-0.1-0.4-0.2l0,0l0,0
			c-0.1,0-0.1-0.1-0.2-0.1v0h0c-0.2-0.1-0.3-0.2-0.5-0.3v0h0c-0.1-0.1-0.3-0.2-0.4-0.3l0,0h0c0,0,0,0-0.1-0.1v0h0c0,0,0,0-0.1-0.1v0
			h0c0,0,0,0-0.1-0.1v0h0c-0.2-0.2-0.3-0.4-0.5-0.6c-0.1-0.1-0.1-0.1-0.2-0.2v0h0c-0.1-0.2-0.2-0.3-0.3-0.5v0h0
			c-0.1-0.1-0.2-0.3-0.2-0.4l0,0c0,0,0-0.1-0.1-0.1v0h0c-0.2-0.3-0.3-0.7-0.4-1v0h0c0-0.1-0.1-0.3-0.1-0.4v0h0c0-0.1,0-0.2-0.1-0.3
			v0h0c0-0.2,0-0.5,0-0.7c0-0.3,0-0.6,0-0.9h0v-0.1c0-0.1,0-0.2,0.1-0.4h0v0c0-0.1,0-0.1,0-0.2h0v-0.1c0-0.1,0-0.1,0-0.2h0v0
			c0-0.1,0-0.1,0.1-0.2h0v0c0-0.1,0-0.1,0.1-0.2h0v0c0-0.1,0-0.1,0.1-0.2h0v0c0,0,0-0.1,0-0.1h0v0c0,0,0-0.1,0.1-0.1h0v0
			c0.1-0.1,0.1-0.2,0.2-0.3h0v0c0,0,0-0.1,0.1-0.1h0v0c0.1-0.1,0.1-0.2,0.2-0.3h0v0c0-0.1,0.1-0.1,0.1-0.2h0v0
			C1.1,65,1.1,65,1.2,64.9h0v0c0,0,0,0,0-0.1h0v0c0.1-0.1,0.2-0.2,0.3-0.3l0,0c0,0,0,0,0.1-0.1h0v0c0,0,0,0,0.1-0.1h0v0
			c0,0,0,0,0.1-0.1l0,0c0.2-0.2,0.4-0.4,0.6-0.5h0v0c0,0,0.1-0.1,0.1-0.1h0v0c0.2-0.2,0.5-0.3,0.7-0.4h0v0c0,0,0.1,0,0.1-0.1h0v0
			c0,0,0.1,0,0.1-0.1h0v0c0,0,0.1,0,0.1,0V34.9h0L8.8,38L8.8,38z M55.1,94.9L55.1,94.9l-5.5-3.2l0,0l0,0l-5.5-3.2l-5.5-3.2l0,0l0,0
			l-5.5-3.2l-9.5-5.5l0,0h0l-5.3-3.1V62.2h0V51.9l0.5,0.3l9.3,5.4v10.3l5.7,3.3l25.3,14.6l7-4l0,0l9.5-5.5l14.5-8.4l0-18.5l9.8-5.6
			v29.8l-10.1,5.8L69.3,91.3l-10.2,5.9L55.1,94.9L55.1,94.9z"/>
		<polygon class="st3" points="59.1,85.8 66.1,81.8 66.1,81.8 75.6,76.3 90.2,67.9 90.2,49.1 100,43.5 100,73.6 89.9,79.4 
			69.3,91.3 59.1,97.2 		"/>
	</g>
</g>
</svg>
